<svg width="119" height="112" viewBox="0 0 119 112" fill="none" xmlns="http://www.w3.org/2000/svg">
<g id="Icon">
<line id="Line 6" x1="72.4882" y1="8.61053" x2="109.721" y2="28.128" stroke="#3C4B55" stroke-width="7"/>
<line id="Line 7" x1="17.2354" y1="58.8282" x2="40.0558" y2="82.5494" stroke="#3C4B55" stroke-width="7"/>
<line id="Line 8" x1="15.3173" y1="57.8073" x2="73.5693" y2="68.0164" stroke="#3C4B55" stroke-width="7"/>
<line id="Line 9" x1="66.2961" y1="68.9795" x2="105.631" y2="29.9447" stroke="#3C4B55" stroke-width="7"/>
<line id="Line 10" x1="104.596" y1="81.9731" x2="104.596" y2="32.4289" stroke="#3C4B55" stroke-width="7"/>
<line id="Line 11" x1="38.8484" y1="85.0352" x2="72.1782" y2="98.5473" stroke="#3C4B55" stroke-width="7"/>
<line id="Line 12" x1="72.7298" y1="98.752" x2="106.36" y2="79.5349" stroke="#3C4B55" stroke-width="7"/>
<line id="Line 13" x1="69.4707" y1="98.2938" x2="70.9721" y2="71.2696" stroke="#3C4B55" stroke-width="7"/>
<line id="Line 5" x1="50.9848" y1="42.5757" x2="105.634" y2="26.9618" stroke="#3C4B55" stroke-width="7"/>
<line id="Line 4" x1="46.346" y1="42.7776" x2="65.8634" y2="13.9518" stroke="#3C4B55" stroke-width="7"/>
<circle id="Ellipse 2" cx="25.823" cy="18.3163" r="11.7105" fill="#3C4B55"/>
<circle id="Ellipse 8" cx="51.0457" cy="42.9384" r="11.7105" fill="#3C4B55"/>
<circle id="Ellipse 9" cx="106.595" cy="30.0267" r="11.7105" fill="#3C4B55"/>
<circle id="Ellipse 5" cx="39.3352" cy="84.976" r="11.7105" fill="#3C4B55"/>
<circle id="Ellipse 7" cx="106.595" cy="81.0724" r="11.7105" fill="#3C4B55"/>
<circle id="Ellipse 6" cx="70.8633" cy="100.29" r="11.7105" fill="#3C4B55"/>
<path id="Ellipse 4" d="M84.6756 70.4128C84.6756 76.8804 79.4326 82.1233 72.9651 82.1233C66.4976 82.1233 61.2546 76.8804 61.2546 70.4128C61.2546 63.9453 66.4976 58.7024 72.9651 58.7024C79.4326 58.7024 84.6756 63.9453 84.6756 70.4128Z" fill="#037CD5"/>
<line id="Line 1" x1="25.6348" y1="14.5504" x2="70.3748" y2="8.24474" stroke="#3C4B55" stroke-width="7"/>
<line id="Line 2" x1="8.42207" y1="56.7531" x2="20.1325" y2="24.6244" stroke="#3C4B55" stroke-width="7"/>
<line id="Line 3" x1="12.9766" y1="58.2159" x2="46.6067" y2="38.9987" stroke="#3C4B55" stroke-width="7"/>
<circle id="Ellipse 3" cx="70.8633" cy="11.7105" r="11.7105" fill="#037CD5"/>
<circle id="Ellipse 1" cx="11.7105" cy="57.6515" r="11.7105" fill="#037CD5"/>
</g>
</svg>
